<svg width="89" height="32" fill="none" xmlns="http://www.w3.org/2000/svg"><path d="M45.266 27.148c0-.282.082-.516.246-.704.17-.187.422-.28.756-.28s.585.093.755.28a.988.988 0 01.264.704.932.932 0 01-.264.676c-.17.182-.421.273-.755.273s-.586-.091-.756-.273a.972.972 0 01-.246-.677zm10.248-1.67c0-.44-.167-.78-.501-1.02-.328-.246-.906-.457-1.732-.633-.82-.176-1.473-.386-1.96-.633-.48-.246-.838-.539-1.072-.878-.229-.34-.343-.745-.343-1.213 0-.78.328-1.439.985-1.978.662-.539 1.506-.809 2.53-.809 1.079 0 1.952.279 2.62.835.674.557 1.01 1.269 1.01 2.136h-1.634c0-.445-.19-.829-.571-1.151-.375-.323-.85-.484-1.424-.484-.592 0-1.055.13-1.389.387a1.217 1.217 0 00-.5 1.01c0 .393.154.69.465.889.31.199.87.39 1.679.57.814.183 1.473.4 1.977.651.504.252.876.557 1.116.914.247.352.37.782.37 1.292 0 .85-.34 1.532-1.02 2.048-.68.51-1.561.765-2.645.765-.762 0-1.436-.135-2.022-.404-.586-.27-1.046-.645-1.38-1.125a2.76 2.76 0 01-.492-1.574h1.626c.03.545.246.979.65 1.301.41.316.95.475 1.618.475.615 0 1.107-.123 1.476-.37.375-.252.563-.585.563-1.002zm5.37-5.836c.72-.885 1.658-1.328 2.812-1.328 2.01 0 3.024 1.134 3.041 3.402V28h-1.626v-6.293c-.005-.686-.164-1.192-.474-1.52-.305-.329-.782-.493-1.433-.493-.527 0-.99.141-1.389.422-.398.282-.709.65-.931 1.108V28h-1.626V14.5h1.626v5.142zm7.857 3.515c0-.931.182-1.77.545-2.513.37-.745.879-1.319 1.53-1.723.656-.404 1.403-.607 2.24-.607 1.296 0 2.341.449 3.138 1.345.803.897 1.204 2.089 1.204 3.577v.115c0 .925-.178 1.757-.536 2.496a4.005 4.005 0 01-1.52 1.713c-.656.41-1.412.616-2.268.616-1.289 0-2.335-.448-3.138-1.345-.796-.896-1.195-2.083-1.195-3.56v-.114zm1.635.194c0 1.054.243 1.901.73 2.54.492.638 1.148.958 1.968.958.826 0 1.483-.323 1.969-.967.486-.65.73-1.559.73-2.725 0-1.043-.25-1.887-.748-2.531-.492-.65-1.148-.976-1.968-.976-.803 0-1.45.32-1.943.958-.492.64-.738 1.553-.738 2.743zm17.095 0c0 1.447-.331 2.613-.993 3.498-.663.884-1.56 1.327-2.69 1.327-1.154 0-2.062-.366-2.724-1.099v4.58h-1.626V18.49h1.485l.079 1.055c.662-.82 1.582-1.23 2.76-1.23 1.142 0 2.045.43 2.707 1.291.668.862 1.002 2.06 1.002 3.595v.15zm-1.626-.185c0-1.072-.229-1.919-.686-2.54-.457-.621-1.084-.932-1.88-.932-.985 0-1.723.437-2.215 1.31v4.544c.486.867 1.23 1.3 2.232 1.3.78 0 1.397-.307 1.854-.922.463-.621.695-1.541.695-2.76z" fill="#000"/><g clip-path="url(#clip0_89_1)" fill="#000"><path d="M34.107.79H23.492v27.384h6.61v-8.613h4.005c6.21 0 9.816-3.948 9.816-9.385 0-5.437-3.605-9.386-9.816-9.386zm-.686 12.962h-3.319V6.6h3.32c2.403 0 3.776 1.316 3.776 3.577 0 2.26-1.373 3.576-3.777 3.576zm-21.203-2.06c-2.031-.573-3.32-1-3.95-1.401-.513-.343-.828-.831-.828-1.403 0-1.288 1.03-2.26 3.347-2.26 2.203 0 3.377.944 3.377 2.345H20.8c0-5.122-4.291-8.527-9.7-8.527-3.203 0-5.665.688-7.61 2.347C1.773 4.253.743 6.34.743 8.945c0 2.261.686 3.892 1.745 5.036 1.001 1.087 3.033 2.375 6.209 3.234 2.29.63 3.921 1.116 4.665 1.602.772.486.973.916.973 1.488 0 1.23-1.23 2.06-3.692 2.06-2.29 0-3.52-.859-3.605-2.347H.314c0 5.18 4.235 8.498 10.33 8.498 5.923 0 10.386-3.663 10.386-8.327 0-1.717-.314-3.204-1.545-4.72-1.087-1.373-3.26-2.603-7.267-3.777z"/></g><defs><clipPath id="clip0_89_1"><path fill="#fff" d="M0 0h44v28.735H0z"/></clipPath></defs></svg>