<svg width="85" height="23" fill="none" xmlns="http://www.w3.org/2000/svg"><path d="M31.677 4.704h-4.688a.645.645 0 00-.424.159.665.665 0 00-.22.4L24.45 17.486a.404.404 0 00.09.32.394.394 0 00.297.138h2.238a.645.645 0 00.423-.159.665.665 0 00.22-.4l.512-3.297a.665.665 0 01.22-.4.645.645 0 01.423-.16h1.484c3.088 0 4.87-1.52 5.336-4.53.21-1.317.009-2.352-.598-3.077-.666-.796-1.848-1.217-3.417-1.217zm.54 4.464c-.256 1.71-1.54 1.71-2.784 1.71h-.707l.496-3.194a.399.399 0 01.132-.24.387.387 0 01.254-.095h.324c.847 0 1.646 0 2.058.49.246.293.322.728.228 1.329zm13.473-.055h-2.245a.387.387 0 00-.254.095.4.4 0 00-.132.24l-.099.639-.157-.232c-.486-.717-1.57-.957-2.651-.957-2.481 0-4.6 1.91-5.013 4.59-.214 1.337.09 2.616.837 3.507.684.82 1.663 1.161 2.827 1.161 1.999 0 3.108-1.307 3.108-1.307l-.1.634a.405.405 0 00.088.32.394.394 0 00.297.14h2.022a.645.645 0 00.423-.158.665.665 0 00.22-.401l1.214-7.813a.401.401 0 00-.222-.422.384.384 0 00-.163-.036zm-3.129 4.442c-.217 1.304-1.235 2.18-2.533 2.18-.652 0-1.173-.213-1.507-.616-.332-.4-.458-.97-.353-1.603.203-1.293 1.238-2.197 2.516-2.197.638 0 1.156.215 1.497.621.342.411.478.984.38 1.615zm15.085-4.442h-2.255a.645.645 0 00-.54.29l-3.111 4.66-1.32-4.478a.664.664 0 00-.235-.341.646.646 0 00-.39-.131H47.58a.385.385 0 00-.319.166.402.402 0 00-.052.36l2.485 7.414-2.336 3.353a.401.401 0 00.115.57.385.385 0 00.203.057h2.254a.643.643 0 00.535-.284l7.503-11.012a.402.402 0 00-.118-.567.386.386 0 00-.203-.057z" fill="#253B80"/><path d="M65.115 4.704h-4.688a.645.645 0 00-.423.159.665.665 0 00-.22.4l-1.896 12.223a.404.404 0 00.088.32.39.39 0 00.297.138h2.406c.109 0 .213-.04.296-.111a.465.465 0 00.154-.28l.538-3.465a.665.665 0 01.22-.4.645.645 0 01.423-.16h1.483c3.089 0 4.87-1.52 5.337-4.53.21-1.317.008-2.352-.599-3.077-.665-.796-1.847-1.217-3.416-1.217zm.541 4.464c-.255 1.71-1.54 1.71-2.784 1.71h-.707l.497-3.194a.398.398 0 01.132-.24.386.386 0 01.253-.095h.325c.846 0 1.645 0 2.057.49.246.293.321.728.227 1.329zm13.472-.055h-2.243a.385.385 0 00-.254.095.397.397 0 00-.132.24l-.1.638-.157-.23c-.486-.718-1.569-.958-2.65-.958-2.481 0-4.6 1.91-5.012 4.59-.214 1.337.09 2.616.835 3.507.686.82 1.663 1.161 2.828 1.161 1.999 0 3.107-1.307 3.107-1.307l-.1.634a.401.401 0 00.223.424.386.386 0 00.164.037h2.022a.645.645 0 00.423-.16.665.665 0 00.22-.4l1.213-7.813a.405.405 0 00-.09-.32.393.393 0 00-.297-.138zm-3.13 4.442c-.214 1.304-1.234 2.18-2.532 2.18-.65 0-1.173-.213-1.507-.616-.332-.4-.457-.97-.353-1.603.204-1.293 1.238-2.197 2.516-2.197.638 0 1.156.215 1.497.621.344.411.48.984.38 1.615zm5.777-8.516L79.85 17.486a.404.404 0 00.088.32.39.39 0 00.297.138h1.934a.654.654 0 00.644-.56L84.71 5.162a.404.404 0 00-.088-.32.391.391 0 00-.297-.139H82.16a.388.388 0 00-.253.096.4.4 0 00-.132.24z" fill="#179BD7"/><path d="M4.98 20.32l.36-2.316-.8-.019H.728L3.377.9a.221.221 0 01.074-.134.214.214 0 01.142-.052h6.43c2.134 0 3.607.451 4.376 1.343.36.418.59.855.702 1.336.116.504.118 1.107.004 1.843l-.008.053v.471l.36.208c.276.142.523.334.73.566.31.358.509.812.593 1.35.087.555.058 1.214-.084 1.96-.165.86-.43 1.607-.79 2.22a4.538 4.538 0 01-1.251 1.393 5.034 5.034 0 01-1.685.773c-.621.165-1.33.247-2.106.247h-.5a1.5 1.5 0 00-.978.366 1.547 1.547 0 00-.51.926l-.038.208-.633 4.081-.03.15c-.007.047-.02.071-.039.087a.106.106 0 01-.066.024H4.98z" fill="#253B80"/><path d="M15.799 5.344c-.02.124-.041.252-.066.383-.848 4.426-3.749 5.956-7.454 5.956H6.393a.921.921 0 00-.906.789L4.521 18.7l-.273 1.765a.499.499 0 00.11.395.484.484 0 00.366.172H8.07a.81.81 0 00.795-.69l.033-.172.63-4.065.04-.223a.809.809 0 01.796-.691h.5c3.242 0 5.78-1.339 6.521-5.211.31-1.618.15-2.968-.67-3.918a3.206 3.206 0 00-.916-.718z" fill="#179BD7"/><path d="M14.912 4.984a6.596 6.596 0 00-.825-.186 10.308 10.308 0 00-1.663-.123h-5.04a.796.796 0 00-.522.196.82.82 0 00-.272.495L5.518 12.27l-.03.202a.935.935 0 01.308-.565.907.907 0 01.597-.224h1.886c3.705 0 6.606-1.53 7.454-5.956.026-.131.047-.259.066-.383a4.477 4.477 0 00-.887-.36z" fill="#222D65"/><path d="M6.59 5.366a.818.818 0 01.271-.495.794.794 0 01.524-.196h5.04c.596 0 1.154.04 1.662.124.345.055.684.137 1.016.246.25.084.482.184.697.299.252-1.636-.002-2.75-.872-3.758C13.968.476 12.238 0 10.023 0h-6.43a.924.924 0 00-.908.79L.007 18.05a.571.571 0 00.125.453.555.555 0 00.42.197h3.97l.996-6.43L6.59 5.366z" fill="#253B80"/></svg>