<svg width="24" height="21" fill="none" xmlns="http://www.w3.org/2000/svg"><path d="M18.75 16.5a2.26 2.26 0 011.594.656 2.26 2.26 0 010 3.188 2.26 2.26 0 01-3.188 0 2.26 2.26 0 01-.656-1.594c0-.242.043-.492.129-.75H10.37c.086.258.129.508.129.75a2.259 2.259 0 01-.656 1.594 2.258 2.258 0 01-3.188 0 2.259 2.259 0 01-.316-2.79c.226-.366.539-.644.937-.831L2.215 1.5H0V0h3.293l.996 3H24l-3.492 10.5H7.793l.996 3h9.961zM4.793 4.5L7.289 12h12.129l2.496-7.5H4.793zM9 18.75a.72.72 0 00-.223-.527A.72.72 0 008.25 18a.72.72 0 00-.527.223.72.72 0 00-.223.527.72.72 0 00.223.527.72.72 0 00.527.223.72.72 0 00.527-.223A.72.72 0 009 18.75zm9.75.75a.72.72 0 00.527-.223.72.72 0 00.223-.527.72.72 0 00-.223-.527.72.72 0 00-.527-.223.72.72 0 00-.527.223.72.72 0 00-.223.527.72.72 0 00.223.527.72.72 0 00.527.223z" fill="#000"/></svg>