<svg width="21" height="20" fill="none" xmlns="http://www.w3.org/2000/svg"><path d="M10.888 0c.916 0 1.8.118 2.654.354a9.692 9.692 0 012.383 1.01c.735.438 1.408.959 2.019 1.563a9.59 9.59 0 011.561 2.02c.43.744.767 1.543 1.01 2.397.242.854.364 1.74.364 2.656 0 .917-.118 1.802-.354 2.656a9.711 9.711 0 01-1.01 2.386 10.48 10.48 0 01-1.56 2.02 9.584 9.584 0 01-2.02 1.563c-.742.43-1.54.767-2.393 1.01a9.64 9.64 0 01-2.654.365c-.916 0-1.8-.118-2.654-.354a9.692 9.692 0 01-2.383-1.01 10.47 10.47 0 01-2.02-1.563 9.59 9.59 0 01-1.56-2.02 10.535 10.535 0 01-1.01-2.386A9.632 9.632 0 01.897 10c0-.917.118-1.802.354-2.656a9.711 9.711 0 011.01-2.386 10.48 10.48 0 011.56-2.02 9.583 9.583 0 012.02-1.563C6.582.945 7.376.608 8.223.365A9.607 9.607 0 0110.888 0zm0 18.667c.798 0 1.564-.101 2.3-.302a8.405 8.405 0 002.07-.875 8.792 8.792 0 001.75-1.355c.52-.52.97-1.104 1.352-1.75a8.418 8.418 0 00.874-2.072A9.028 9.028 0 0019.547 10c0-.799-.101-1.566-.302-2.302a8.418 8.418 0 00-.874-2.073 8.795 8.795 0 00-1.353-1.75 8.79 8.79 0 00-1.749-1.354 8.404 8.404 0 00-2.07-.875 9.007 9.007 0 00-2.311-.313c-.798 0-1.565.101-2.3.302a8.402 8.402 0 00-2.071.875 8.786 8.786 0 00-1.749 1.355 8.793 8.793 0 00-1.352 1.75 8.418 8.418 0 00-.875 2.072A9.03 9.03 0 002.23 10c0 .799.1 1.566.302 2.302.201.736.493 1.427.874 2.073.382.646.833 1.23 1.353 1.75a8.79 8.79 0 001.748 1.354 8.405 8.405 0 002.071.875 9.008 9.008 0 002.31.313zM4.893 9.333h11.99v1.334H4.892V9.333z" fill="#000"/></svg>