<svg width="21" height="20" fill="none" xmlns="http://www.w3.org/2000/svg"><path d="M10.83 0c.918 0 1.802.117 2.654.352a9.443 9.443 0 012.381 1.015c.735.443 1.408.964 2.02 1.563a9.52 9.52 0 011.57 2.021 10.077 10.077 0 011.015 7.705 9.46 9.46 0 01-1.015 2.383c-.442.736-.962 1.41-1.56 2.022a9.515 9.515 0 01-2.02 1.572 10.057 10.057 0 01-7.698 1.015 9.833 9.833 0 01-2.39-1.005 10.038 10.038 0 01-2.02-1.563 9.925 9.925 0 01-1.561-2.031A10.118 10.118 0 011.2 12.666a10.148 10.148 0 01-.01-5.322A9.461 9.461 0 012.206 4.96c.442-.736.962-1.41 1.56-2.022a9.512 9.512 0 012.02-1.572A10.056 10.056 0 0110.831 0zm0 18.75c.807 0 1.581-.104 2.323-.313a8.974 8.974 0 002.088-.878 8.382 8.382 0 001.765-1.368 9.22 9.22 0 001.366-1.767 8.52 8.52 0 00.888-2.09A8.675 8.675 0 0019.573 10c0-.807-.105-1.582-.313-2.324a8.99 8.99 0 00-.878-2.09 8.393 8.393 0 00-1.366-1.768 9.225 9.225 0 00-1.766-1.367 8.514 8.514 0 00-2.088-.889 8.65 8.65 0 00-2.332-.312c-.806 0-1.58.104-2.322.313a8.976 8.976 0 00-2.088.878 8.41 8.41 0 00-1.766 1.368A9.229 9.229 0 003.29 5.576a8.53 8.53 0 00-.888 2.09A8.673 8.673 0 002.088 10c0 .807.105 1.582.313 2.324.208.742.5 1.439.878 2.09a8.728 8.728 0 003.132 3.144 8.746 8.746 0 004.42 1.192zm.625-9.385h4.37v1.25h-4.37V15h-1.249v-4.385H5.835v-1.25h4.371V5h1.249v4.365z" fill="#000"/></svg>