<svg width="5" height="9" fill="none" xmlns="http://www.w3.org/2000/svg"><path d="M1.743 5.998c.007-.387.05-.693.132-.918.081-.225.247-.474.498-.747l.64-.66c.273-.308.41-.64.41-.995 0-.342-.09-.609-.269-.801-.179-.195-.44-.293-.78-.293-.333 0-.6.088-.802.264-.202.175-.302.411-.302.708H.366c.007-.528.194-.952.562-1.275.37-.325.853-.488 1.445-.488.615 0 1.094.166 1.436.498.345.329.517.781.517 1.357 0 .57-.263 1.132-.79 1.685l-.533.527c-.238.264-.357.643-.357 1.138h-.903zm-.039 1.548c0-.147.044-.269.132-.366.091-.101.225-.152.4-.152.176 0 .31.05.4.152.092.097.137.22.137.366a.516.516 0 01-.136.366c-.091.095-.225.142-.4.142-.176 0-.31-.047-.401-.142a.527.527 0 01-.132-.366z" fill="#000"/></svg>