<svg width="24" height="24" fill="none" xmlns="http://www.w3.org/2000/svg"><path d="M15.75 0a8.15 8.15 0 014.16 1.125c.61.36 1.164.79 1.664 1.29s.934 1.058 1.301 1.675c.367.617.645 1.273.832 1.969.188.695.285 1.425.293 2.191a8.15 8.15 0 01-1.125 4.16c-.36.61-.79 1.164-1.29 1.664s-1.058.934-1.675 1.301a7.809 7.809 0 01-1.969.832 8.726 8.726 0 01-2.191.293 8.03 8.03 0 01-2.8-.492 8.606 8.606 0 01-2.473-1.418l-9.2 9.187A.72.72 0 01.75 24a.72.72 0 01-.527-.223A.72.72 0 010 23.25a.72.72 0 01.223-.527l9.187-9.2a8.445 8.445 0 01-1.418-2.46A8.07 8.07 0 017.5 8.25a8.15 8.15 0 011.125-4.16c.36-.61.79-1.164 1.29-1.664s1.058-.934 1.675-1.301a7.81 7.81 0 011.969-.832A8.727 8.727 0 0115.75 0zm0 15a6.676 6.676 0 004.77-1.98 6.95 6.95 0 001.44-2.145 6.68 6.68 0 00.54-2.625 6.677 6.677 0 00-1.98-4.77 6.952 6.952 0 00-2.145-1.44 6.681 6.681 0 00-2.625-.54 6.676 6.676 0 00-4.77 1.98 6.952 6.952 0 00-1.44 2.145A6.681 6.681 0 009 8.25a6.676 6.676 0 001.98 4.77 6.95 6.95 0 002.145 1.44 6.68 6.68 0 002.625.54z" fill="#000"/></svg>